<svg width="627" height="512" viewBox="0 0 627 512" fill="none" xmlns="http://www.w3.org/2000/svg">
<path d="M189.172 232.266H199.562V234.766H192.047V249H189.172V232.266Z" fill="#3378B7"/>
<path d="M201.922 232.266H204.797V234.562H204.859C205.047 234.177 205.281 233.812 205.562 233.469C205.854 233.125 206.198 232.828 206.594 232.578C207 232.318 207.464 232.115 207.984 231.969C208.516 231.823 209.12 231.75 209.797 231.75C210.693 231.75 211.552 231.922 212.375 232.266C213.198 232.609 213.927 233.125 214.562 233.812C215.198 234.5 215.703 235.365 216.078 236.406C216.453 237.438 216.641 238.641 216.641 240.016C216.641 241.734 216.464 243.198 216.109 244.406C215.766 245.604 215.271 246.583 214.625 247.344C213.99 248.104 213.219 248.656 212.312 249C211.406 249.344 210.396 249.516 209.281 249.516C208.729 249.516 208.214 249.443 207.734 249.297C207.255 249.151 206.823 248.964 206.438 248.734C206.062 248.495 205.74 248.234 205.469 247.953C205.198 247.661 204.995 247.38 204.859 247.109H204.797V255.594H201.922V232.266ZM204.734 240.719C204.734 241.625 204.823 242.464 205 243.234C205.177 243.995 205.448 244.656 205.812 245.219C206.188 245.781 206.651 246.224 207.203 246.547C207.766 246.859 208.427 247.016 209.188 247.016C209.979 247.016 210.661 246.859 211.234 246.547C211.818 246.224 212.297 245.781 212.672 245.219C213.047 244.656 213.323 243.995 213.5 243.234C213.677 242.464 213.766 241.625 213.766 240.719C213.766 239.771 213.677 238.901 213.5 238.109C213.323 237.318 213.047 236.635 212.672 236.062C212.297 235.49 211.818 235.047 211.234 234.734C210.661 234.411 209.979 234.25 209.188 234.25C208.427 234.25 207.766 234.411 207.203 234.734C206.651 235.047 206.188 235.49 205.812 236.062C205.448 236.635 205.177 237.318 205 238.109C204.823 238.901 204.734 239.771 204.734 240.719Z" fill="#3378B7"/>
<path d="M219.859 237.281C219.891 236.26 220.083 235.401 220.438 234.703C220.792 233.995 221.271 233.422 221.875 232.984C222.479 232.547 223.193 232.234 224.016 232.047C224.849 231.849 225.755 231.75 226.734 231.75C227.547 231.75 228.333 231.833 229.094 232C229.865 232.167 230.547 232.438 231.141 232.812C231.734 233.177 232.208 233.656 232.562 234.25C232.927 234.833 233.109 235.547 233.109 236.391V246.125C233.109 246.396 233.182 246.63 233.328 246.828C233.474 247.016 233.708 247.109 234.031 247.109C234.177 247.109 234.328 247.099 234.484 247.078C234.641 247.047 234.802 247.016 234.969 246.984V248.969C234.729 249.031 234.49 249.089 234.25 249.141C234.021 249.193 233.745 249.219 233.422 249.219C232.922 249.219 232.49 249.177 232.125 249.094C231.771 249.01 231.469 248.875 231.219 248.688C230.979 248.49 230.792 248.24 230.656 247.938C230.521 247.625 230.432 247.245 230.391 246.797C230.036 247.182 229.661 247.542 229.266 247.875C228.87 248.198 228.427 248.484 227.938 248.734C227.448 248.974 226.901 249.161 226.297 249.297C225.693 249.443 225.01 249.516 224.25 249.516C223.604 249.516 222.974 249.411 222.359 249.203C221.755 248.995 221.208 248.688 220.719 248.281C220.24 247.875 219.854 247.375 219.562 246.781C219.271 246.177 219.125 245.479 219.125 244.688C219.125 243.823 219.271 243.078 219.562 242.453C219.854 241.818 220.234 241.292 220.703 240.875C221.172 240.448 221.708 240.12 222.312 239.891C222.917 239.661 223.531 239.51 224.156 239.438L228.859 238.859C229.307 238.807 229.656 238.635 229.906 238.344C230.167 238.042 230.297 237.562 230.297 236.906C230.297 235.896 229.964 235.172 229.297 234.734C228.641 234.286 227.693 234.062 226.453 234.062C225.182 234.062 224.234 234.333 223.609 234.875C222.984 235.406 222.63 236.208 222.547 237.281H219.859ZM230.234 240.484C230.005 240.651 229.719 240.792 229.375 240.906C229.042 241.01 228.672 241.099 228.266 241.172C227.859 241.245 227.427 241.312 226.969 241.375C226.51 241.427 226.052 241.484 225.594 241.547C225.073 241.62 224.594 241.724 224.156 241.859C223.719 241.995 223.339 242.172 223.016 242.391C222.693 242.609 222.443 242.875 222.266 243.188C222.089 243.49 222 243.849 222 244.266C222 244.745 222.073 245.167 222.219 245.531C222.375 245.896 222.583 246.203 222.844 246.453C223.115 246.703 223.438 246.891 223.812 247.016C224.188 247.141 224.599 247.203 225.047 247.203C225.328 247.203 225.651 247.172 226.016 247.109C226.38 247.036 226.755 246.932 227.141 246.797C227.526 246.661 227.901 246.49 228.266 246.281C228.641 246.062 228.974 245.802 229.266 245.5C229.557 245.198 229.792 244.854 229.969 244.469C230.146 244.083 230.234 243.651 230.234 243.172V240.484Z" fill="#3378B7"/>
<path d="M247.469 239.172C247.469 238.38 247.37 237.682 247.172 237.078C246.974 236.464 246.708 235.948 246.375 235.531C246.042 235.115 245.656 234.797 245.219 234.578C244.781 234.359 244.323 234.25 243.844 234.25C243.073 234.25 242.417 234.417 241.875 234.75C241.333 235.083 240.891 235.542 240.547 236.125C240.203 236.698 239.953 237.37 239.797 238.141C239.641 238.911 239.562 239.734 239.562 240.609C239.562 241.078 239.589 241.568 239.641 242.078C239.703 242.589 239.797 243.089 239.922 243.578C240.047 244.068 240.214 244.531 240.422 244.969C240.63 245.406 240.891 245.792 241.203 246.125C241.516 246.458 241.88 246.724 242.297 246.922C242.724 247.109 243.219 247.203 243.781 247.203C244.979 247.203 245.891 246.781 246.516 245.938C247.151 245.083 247.469 243.875 247.469 242.312V239.172ZM247.469 246.984H247.406C247.104 247.516 246.786 247.948 246.453 248.281C246.13 248.604 245.786 248.854 245.422 249.031C245.068 249.219 244.693 249.344 244.297 249.406C243.911 249.479 243.516 249.516 243.109 249.516C242.297 249.516 241.505 249.323 240.734 248.938C239.964 248.552 239.276 247.984 238.672 247.234C238.078 246.474 237.599 245.531 237.234 244.406C236.87 243.281 236.688 241.984 236.688 240.516C236.688 239.797 236.74 239.083 236.844 238.375C236.948 237.656 237.109 236.974 237.328 236.328C237.547 235.682 237.823 235.078 238.156 234.516C238.5 233.953 238.906 233.469 239.375 233.062C239.854 232.656 240.401 232.339 241.016 232.109C241.63 231.87 242.318 231.75 243.078 231.75C243.651 231.75 244.167 231.833 244.625 232C245.083 232.156 245.484 232.359 245.828 232.609C246.182 232.859 246.484 233.13 246.734 233.422C246.995 233.714 247.219 233.99 247.406 234.25H247.469V226.031H250.344V234.25H250.406C250.594 233.99 250.812 233.714 251.062 233.422C251.323 233.13 251.625 232.859 251.969 232.609C252.323 232.359 252.724 232.156 253.172 232C253.63 231.833 254.151 231.75 254.734 231.75C255.495 231.75 256.182 231.87 256.797 232.109C257.411 232.339 257.953 232.656 258.422 233.062C258.901 233.469 259.307 233.953 259.641 234.516C259.984 235.078 260.266 235.682 260.484 236.328C260.703 236.974 260.865 237.656 260.969 238.375C261.073 239.083 261.125 239.797 261.125 240.516C261.125 241.984 260.943 243.281 260.578 244.406C260.214 245.531 259.729 246.474 259.125 247.234C258.531 247.984 257.849 248.552 257.078 248.938C256.307 249.323 255.516 249.516 254.703 249.516C254.297 249.516 253.896 249.479 253.5 249.406C253.115 249.344 252.74 249.219 252.375 249.031C252.021 248.854 251.677 248.604 251.344 248.281C251.01 247.948 250.698 247.516 250.406 246.984H250.344V255.594H247.469V246.984ZM253.969 247.203C254.542 247.203 255.047 247.109 255.484 246.922C255.922 246.724 256.297 246.458 256.609 246.125C256.932 245.792 257.198 245.406 257.406 244.969C257.615 244.531 257.781 244.068 257.906 243.578C258.031 243.089 258.12 242.589 258.172 242.078C258.224 241.568 258.25 241.078 258.25 240.609C258.25 239.734 258.167 238.911 258 238.141C257.844 237.37 257.594 236.698 257.25 236.125C256.906 235.542 256.464 235.083 255.922 234.75C255.38 234.417 254.729 234.25 253.969 234.25C253.49 234.25 253.031 234.359 252.594 234.578C252.156 234.797 251.771 235.115 251.438 235.531C251.104 235.948 250.839 236.464 250.641 237.078C250.443 237.682 250.344 238.38 250.344 239.172V242.312C250.344 243.875 250.656 245.083 251.281 245.938C251.906 246.781 252.802 247.203 253.969 247.203Z" fill="#3378B7"/>
<path d="M264.328 232.266H267.203V245.094H267.266L275.484 232.266H278.781V249H275.891V236.172H275.828L267.625 249H264.328V232.266Z" fill="#3378B7"/>
<path d="M283.016 232.266H285.891V240.359L294.344 232.266H298.109L290.25 239.656L298.234 249H294.531L288 241.406L285.891 243.172V249H283.016V232.266Z" fill="#3378B7"/>
<path d="M300.516 237.281C300.547 236.26 300.74 235.401 301.094 234.703C301.448 233.995 301.927 233.422 302.531 232.984C303.135 232.547 303.849 232.234 304.672 232.047C305.505 231.849 306.411 231.75 307.391 231.75C308.203 231.75 308.99 231.833 309.75 232C310.521 232.167 311.203 232.438 311.797 232.812C312.391 233.177 312.865 233.656 313.219 234.25C313.583 234.833 313.766 235.547 313.766 236.391V246.125C313.766 246.396 313.839 246.63 313.984 246.828C314.13 247.016 314.365 247.109 314.688 247.109C314.833 247.109 314.984 247.099 315.141 247.078C315.297 247.047 315.458 247.016 315.625 246.984V248.969C315.385 249.031 315.146 249.089 314.906 249.141C314.677 249.193 314.401 249.219 314.078 249.219C313.578 249.219 313.146 249.177 312.781 249.094C312.427 249.01 312.125 248.875 311.875 248.688C311.635 248.49 311.448 248.24 311.312 247.938C311.177 247.625 311.089 247.245 311.047 246.797C310.693 247.182 310.318 247.542 309.922 247.875C309.526 248.198 309.083 248.484 308.594 248.734C308.104 248.974 307.557 249.161 306.953 249.297C306.349 249.443 305.667 249.516 304.906 249.516C304.26 249.516 303.63 249.411 303.016 249.203C302.411 248.995 301.865 248.688 301.375 248.281C300.896 247.875 300.51 247.375 300.219 246.781C299.927 246.177 299.781 245.479 299.781 244.688C299.781 243.823 299.927 243.078 300.219 242.453C300.51 241.818 300.891 241.292 301.359 240.875C301.828 240.448 302.365 240.12 302.969 239.891C303.573 239.661 304.188 239.51 304.812 239.438L309.516 238.859C309.964 238.807 310.312 238.635 310.562 238.344C310.823 238.042 310.953 237.562 310.953 236.906C310.953 235.896 310.62 235.172 309.953 234.734C309.297 234.286 308.349 234.062 307.109 234.062C305.839 234.062 304.891 234.333 304.266 234.875C303.641 235.406 303.286 236.208 303.203 237.281H300.516ZM310.891 240.484C310.661 240.651 310.375 240.792 310.031 240.906C309.698 241.01 309.328 241.099 308.922 241.172C308.516 241.245 308.083 241.312 307.625 241.375C307.167 241.427 306.708 241.484 306.25 241.547C305.729 241.62 305.25 241.724 304.812 241.859C304.375 241.995 303.995 242.172 303.672 242.391C303.349 242.609 303.099 242.875 302.922 243.188C302.745 243.49 302.656 243.849 302.656 244.266C302.656 244.745 302.729 245.167 302.875 245.531C303.031 245.896 303.24 246.203 303.5 246.453C303.771 246.703 304.094 246.891 304.469 247.016C304.844 247.141 305.255 247.203 305.703 247.203C305.984 247.203 306.307 247.172 306.672 247.109C307.036 247.036 307.411 246.932 307.797 246.797C308.182 246.661 308.557 246.49 308.922 246.281C309.297 246.062 309.63 245.802 309.922 245.5C310.214 245.198 310.448 244.854 310.625 244.469C310.802 244.083 310.891 243.651 310.891 243.172V240.484Z" fill="#3378B7"/>
<path d="M327.266 232.266H330.141V239.016H337.953V232.266H340.844V249H337.953V241.516H330.141V249H327.266V232.266Z" fill="#3378B7"/>
<path d="M345.047 237.281C345.078 236.26 345.271 235.401 345.625 234.703C345.979 233.995 346.458 233.422 347.062 232.984C347.667 232.547 348.38 232.234 349.203 232.047C350.036 231.849 350.943 231.75 351.922 231.75C352.734 231.75 353.521 231.833 354.281 232C355.052 232.167 355.734 232.438 356.328 232.812C356.922 233.177 357.396 233.656 357.75 234.25C358.115 234.833 358.297 235.547 358.297 236.391V246.125C358.297 246.396 358.37 246.63 358.516 246.828C358.661 247.016 358.896 247.109 359.219 247.109C359.365 247.109 359.516 247.099 359.672 247.078C359.828 247.047 359.99 247.016 360.156 246.984V248.969C359.917 249.031 359.677 249.089 359.438 249.141C359.208 249.193 358.932 249.219 358.609 249.219C358.109 249.219 357.677 249.177 357.312 249.094C356.958 249.01 356.656 248.875 356.406 248.688C356.167 248.49 355.979 248.24 355.844 247.938C355.708 247.625 355.62 247.245 355.578 246.797C355.224 247.182 354.849 247.542 354.453 247.875C354.057 248.198 353.615 248.484 353.125 248.734C352.635 248.974 352.089 249.161 351.484 249.297C350.88 249.443 350.198 249.516 349.438 249.516C348.792 249.516 348.161 249.411 347.547 249.203C346.943 248.995 346.396 248.688 345.906 248.281C345.427 247.875 345.042 247.375 344.75 246.781C344.458 246.177 344.312 245.479 344.312 244.688C344.312 243.823 344.458 243.078 344.75 242.453C345.042 241.818 345.422 241.292 345.891 240.875C346.359 240.448 346.896 240.12 347.5 239.891C348.104 239.661 348.719 239.51 349.344 239.438L354.047 238.859C354.495 238.807 354.844 238.635 355.094 238.344C355.354 238.042 355.484 237.562 355.484 236.906C355.484 235.896 355.151 235.172 354.484 234.734C353.828 234.286 352.88 234.062 351.641 234.062C350.37 234.062 349.422 234.333 348.797 234.875C348.172 235.406 347.818 236.208 347.734 237.281H345.047ZM355.422 240.484C355.193 240.651 354.906 240.792 354.562 240.906C354.229 241.01 353.859 241.099 353.453 241.172C353.047 241.245 352.615 241.312 352.156 241.375C351.698 241.427 351.24 241.484 350.781 241.547C350.26 241.62 349.781 241.724 349.344 241.859C348.906 241.995 348.526 242.172 348.203 242.391C347.88 242.609 347.63 242.875 347.453 243.188C347.276 243.49 347.188 243.849 347.188 244.266C347.188 244.745 347.26 245.167 347.406 245.531C347.562 245.896 347.771 246.203 348.031 246.453C348.302 246.703 348.625 246.891 349 247.016C349.375 247.141 349.786 247.203 350.234 247.203C350.516 247.203 350.839 247.172 351.203 247.109C351.568 247.036 351.943 246.932 352.328 246.797C352.714 246.661 353.089 246.49 353.453 246.281C353.828 246.062 354.161 245.802 354.453 245.5C354.745 245.198 354.979 244.854 355.156 244.469C355.333 244.083 355.422 243.651 355.422 243.172V240.484Z" fill="#3378B7"/>
<path d="M375.891 225.828C375.87 225.984 375.839 226.177 375.797 226.406C375.766 226.625 375.698 226.859 375.594 227.109C375.49 227.359 375.344 227.615 375.156 227.875C374.979 228.125 374.74 228.359 374.438 228.578C374.271 228.693 374.12 228.792 373.984 228.875C373.849 228.958 373.677 229.031 373.469 229.094C373.26 229.156 372.995 229.208 372.672 229.25C372.349 229.292 371.917 229.318 371.375 229.328L370.188 229.359C369.375 229.38 368.641 229.547 367.984 229.859C367.339 230.161 366.766 230.589 366.266 231.141C365.776 231.682 365.37 232.339 365.047 233.109C364.724 233.88 364.484 234.74 364.328 235.688C364.547 235.271 364.818 234.865 365.141 234.469C365.464 234.062 365.865 233.703 366.344 233.391C366.823 233.068 367.385 232.812 368.031 232.625C368.677 232.427 369.427 232.328 370.281 232.328C371.25 232.328 372.167 232.5 373.031 232.844C373.906 233.188 374.667 233.703 375.312 234.391C375.969 235.078 376.49 235.932 376.875 236.953C377.26 237.974 377.453 239.161 377.453 240.516C377.453 240.943 377.422 241.464 377.359 242.078C377.297 242.682 377.172 243.318 376.984 243.984C376.797 244.651 376.526 245.318 376.172 245.984C375.828 246.641 375.365 247.229 374.781 247.75C374.208 248.271 373.505 248.693 372.672 249.016C371.849 249.349 370.859 249.516 369.703 249.516C369.224 249.516 368.714 249.474 368.172 249.391C367.641 249.318 367.104 249.177 366.562 248.969C366.031 248.76 365.51 248.469 365 248.094C364.5 247.719 364.042 247.24 363.625 246.656C363.417 246.365 363.208 246.031 363 245.656C362.802 245.271 362.62 244.807 362.453 244.266C362.286 243.724 362.151 243.083 362.047 242.344C361.953 241.604 361.906 240.729 361.906 239.719C361.906 239.052 361.938 238.297 362 237.453C362.062 236.609 362.172 235.75 362.328 234.875C362.484 234 362.693 233.156 362.953 232.344C363.214 231.521 363.547 230.802 363.953 230.188C364.391 229.521 364.849 228.979 365.328 228.562C365.807 228.146 366.318 227.818 366.859 227.578C367.401 227.339 367.984 227.167 368.609 227.062C369.234 226.958 369.911 226.891 370.641 226.859L371.656 226.828C371.99 226.818 372.271 226.802 372.5 226.781C372.74 226.75 372.938 226.703 373.094 226.641C373.25 226.578 373.375 226.484 373.469 226.359C373.562 226.234 373.641 226.057 373.703 225.828H375.891ZM364.781 240.938C364.781 241.25 364.797 241.62 364.828 242.047C364.87 242.474 364.948 242.922 365.062 243.391C365.177 243.849 365.344 244.307 365.562 244.766C365.781 245.224 366.068 245.635 366.422 246C366.786 246.354 367.234 246.646 367.766 246.875C368.297 247.094 368.932 247.203 369.672 247.203C370.495 247.203 371.188 247.073 371.75 246.812C372.312 246.542 372.776 246.198 373.141 245.781C373.505 245.354 373.781 244.885 373.969 244.375C374.167 243.865 374.307 243.37 374.391 242.891C374.484 242.401 374.536 241.958 374.547 241.562C374.568 241.156 374.578 240.849 374.578 240.641C374.578 239.88 374.49 239.135 374.312 238.406C374.146 237.677 373.87 237.031 373.484 236.469C373.109 235.906 372.615 235.453 372 235.109C371.396 234.766 370.651 234.594 369.766 234.594C368.901 234.594 368.156 234.766 367.531 235.109C366.906 235.443 366.391 235.901 365.984 236.484C365.578 237.057 365.276 237.729 365.078 238.5C364.88 239.26 364.781 240.073 364.781 240.938Z" fill="#3378B7"/>
<path d="M392.391 240.609C392.391 239.682 392.286 238.833 392.078 238.062C391.87 237.281 391.557 236.609 391.141 236.047C390.724 235.484 390.208 235.047 389.594 234.734C388.99 234.411 388.286 234.25 387.484 234.25C386.682 234.25 385.979 234.411 385.375 234.734C384.771 235.047 384.26 235.484 383.844 236.047C383.427 236.609 383.115 237.281 382.906 238.062C382.698 238.833 382.594 239.682 382.594 240.609C382.594 241.547 382.698 242.411 382.906 243.203C383.115 243.984 383.427 244.656 383.844 245.219C384.26 245.781 384.771 246.224 385.375 246.547C385.979 246.859 386.682 247.016 387.484 247.016C388.286 247.016 388.99 246.859 389.594 246.547C390.208 246.224 390.724 245.781 391.141 245.219C391.557 244.656 391.87 243.984 392.078 243.203C392.286 242.411 392.391 241.547 392.391 240.609ZM395.266 240.609C395.266 241.984 395.089 243.224 394.734 244.328C394.38 245.422 393.87 246.354 393.203 247.125C392.536 247.896 391.719 248.49 390.75 248.906C389.792 249.312 388.703 249.516 387.484 249.516C386.266 249.516 385.177 249.312 384.219 248.906C383.26 248.49 382.448 247.896 381.781 247.125C381.115 246.354 380.604 245.422 380.25 244.328C379.896 243.224 379.719 241.984 379.719 240.609C379.719 239.255 379.896 238.031 380.25 236.938C380.604 235.844 381.115 234.911 381.781 234.141C382.448 233.37 383.26 232.781 384.219 232.375C385.177 231.958 386.266 231.75 387.484 231.75C388.703 231.75 389.792 231.958 390.75 232.375C391.719 232.781 392.536 233.37 393.203 234.141C393.87 234.911 394.38 235.844 394.734 236.938C395.089 238.031 395.266 239.255 395.266 240.609Z" fill="#3378B7"/>
<path d="M398.359 232.266H401.234V234.562H401.297C401.484 234.177 401.719 233.812 402 233.469C402.292 233.125 402.635 232.828 403.031 232.578C403.438 232.318 403.901 232.115 404.422 231.969C404.953 231.823 405.557 231.75 406.234 231.75C407.13 231.75 407.99 231.922 408.812 232.266C409.635 232.609 410.365 233.125 411 233.812C411.635 234.5 412.141 235.365 412.516 236.406C412.891 237.438 413.078 238.641 413.078 240.016C413.078 241.734 412.901 243.198 412.547 244.406C412.203 245.604 411.708 246.583 411.062 247.344C410.427 248.104 409.656 248.656 408.75 249C407.844 249.344 406.833 249.516 405.719 249.516C405.167 249.516 404.651 249.443 404.172 249.297C403.693 249.151 403.26 248.964 402.875 248.734C402.5 248.495 402.177 248.234 401.906 247.953C401.635 247.661 401.432 247.38 401.297 247.109H401.234V255.594H398.359V232.266ZM401.172 240.719C401.172 241.625 401.26 242.464 401.438 243.234C401.615 243.995 401.885 244.656 402.25 245.219C402.625 245.781 403.089 246.224 403.641 246.547C404.203 246.859 404.865 247.016 405.625 247.016C406.417 247.016 407.099 246.859 407.672 246.547C408.255 246.224 408.734 245.781 409.109 245.219C409.484 244.656 409.76 243.995 409.938 243.234C410.115 242.464 410.203 241.625 410.203 240.719C410.203 239.771 410.115 238.901 409.938 238.109C409.76 237.318 409.484 236.635 409.109 236.062C408.734 235.49 408.255 235.047 407.672 234.734C407.099 234.411 406.417 234.25 405.625 234.25C404.865 234.25 404.203 234.411 403.641 234.734C403.089 235.047 402.625 235.49 402.25 236.062C401.885 236.635 401.615 237.318 401.438 238.109C401.26 238.901 401.172 239.771 401.172 240.719Z" fill="#3378B7"/>
<path d="M416.297 237.281C416.328 236.26 416.521 235.401 416.875 234.703C417.229 233.995 417.708 233.422 418.312 232.984C418.917 232.547 419.63 232.234 420.453 232.047C421.286 231.849 422.193 231.75 423.172 231.75C423.984 231.75 424.771 231.833 425.531 232C426.302 232.167 426.984 232.438 427.578 232.812C428.172 233.177 428.646 233.656 429 234.25C429.365 234.833 429.547 235.547 429.547 236.391V246.125C429.547 246.396 429.62 246.63 429.766 246.828C429.911 247.016 430.146 247.109 430.469 247.109C430.615 247.109 430.766 247.099 430.922 247.078C431.078 247.047 431.24 247.016 431.406 246.984V248.969C431.167 249.031 430.927 249.089 430.688 249.141C430.458 249.193 430.182 249.219 429.859 249.219C429.359 249.219 428.927 249.177 428.562 249.094C428.208 249.01 427.906 248.875 427.656 248.688C427.417 248.49 427.229 248.24 427.094 247.938C426.958 247.625 426.87 247.245 426.828 246.797C426.474 247.182 426.099 247.542 425.703 247.875C425.307 248.198 424.865 248.484 424.375 248.734C423.885 248.974 423.339 249.161 422.734 249.297C422.13 249.443 421.448 249.516 420.688 249.516C420.042 249.516 419.411 249.411 418.797 249.203C418.193 248.995 417.646 248.688 417.156 248.281C416.677 247.875 416.292 247.375 416 246.781C415.708 246.177 415.562 245.479 415.562 244.688C415.562 243.823 415.708 243.078 416 242.453C416.292 241.818 416.672 241.292 417.141 240.875C417.609 240.448 418.146 240.12 418.75 239.891C419.354 239.661 419.969 239.51 420.594 239.438L425.297 238.859C425.745 238.807 426.094 238.635 426.344 238.344C426.604 238.042 426.734 237.562 426.734 236.906C426.734 235.896 426.401 235.172 425.734 234.734C425.078 234.286 424.13 234.062 422.891 234.062C421.62 234.062 420.672 234.333 420.047 234.875C419.422 235.406 419.068 236.208 418.984 237.281H416.297ZM426.672 240.484C426.443 240.651 426.156 240.792 425.812 240.906C425.479 241.01 425.109 241.099 424.703 241.172C424.297 241.245 423.865 241.312 423.406 241.375C422.948 241.427 422.49 241.484 422.031 241.547C421.51 241.62 421.031 241.724 420.594 241.859C420.156 241.995 419.776 242.172 419.453 242.391C419.13 242.609 418.88 242.875 418.703 243.188C418.526 243.49 418.438 243.849 418.438 244.266C418.438 244.745 418.51 245.167 418.656 245.531C418.812 245.896 419.021 246.203 419.281 246.453C419.552 246.703 419.875 246.891 420.25 247.016C420.625 247.141 421.036 247.203 421.484 247.203C421.766 247.203 422.089 247.172 422.453 247.109C422.818 247.036 423.193 246.932 423.578 246.797C423.964 246.661 424.339 246.49 424.703 246.281C425.078 246.062 425.411 245.802 425.703 245.5C425.995 245.198 426.229 244.854 426.406 244.469C426.583 244.083 426.672 243.651 426.672 243.172V240.484Z" fill="#3378B7"/>
<path d="M214.766 286H201.828V290.094H199.141V283.5H201.344C201.802 282.375 202.167 281.229 202.438 280.062C202.708 278.885 202.917 277.703 203.062 276.516C203.208 275.318 203.302 274.115 203.344 272.906C203.385 271.698 203.406 270.484 203.406 269.266H215.094V283.5H217.453V290.094H214.766V286ZM212.219 283.5V271.766H206.156C206.083 272.714 206.005 273.688 205.922 274.688C205.849 275.688 205.745 276.693 205.609 277.703C205.484 278.703 205.312 279.693 205.094 280.672C204.885 281.651 204.609 282.594 204.266 283.5H212.219Z" fill="#3378B7"/>
<path d="M231.484 271.766H225.078L224.953 275.781C224.891 277.812 224.734 279.51 224.484 280.875C224.234 282.229 223.891 283.318 223.453 284.141C223.026 284.964 222.505 285.547 221.891 285.891C221.276 286.234 220.573 286.406 219.781 286.406C219.49 286.406 219.234 286.359 219.016 286.266C218.807 286.182 218.646 286.094 218.531 286V283.469C218.938 283.625 219.297 283.703 219.609 283.703C219.828 283.703 220.036 283.667 220.234 283.594C220.443 283.521 220.635 283.38 220.812 283.172C221 282.964 221.172 282.672 221.328 282.297C221.484 281.911 221.62 281.411 221.734 280.797C221.859 280.182 221.958 279.438 222.031 278.562C222.115 277.688 222.172 276.646 222.203 275.438L222.344 269.266H234.359V286H231.484V271.766Z" fill="#3378B7"/>
<path d="M252.203 286H249.312V279.375H245.609C244.943 279.375 244.359 279.391 243.859 279.422C243.37 279.443 242.953 279.536 242.609 279.703C242.266 279.87 241.995 280.13 241.797 280.484C241.609 280.839 241.49 281.344 241.438 282L241.312 283.797C241.302 283.849 241.292 283.953 241.281 284.109C241.271 284.266 241.25 284.453 241.219 284.672C241.188 284.88 241.146 285.104 241.094 285.344C241.042 285.583 240.979 285.802 240.906 286H237.734C237.807 285.906 237.875 285.812 237.938 285.719C238.01 285.615 238.078 285.474 238.141 285.297C238.214 285.12 238.276 284.891 238.328 284.609C238.391 284.328 238.448 283.969 238.5 283.531L238.688 281.391C238.75 280.828 238.823 280.37 238.906 280.016C239 279.661 239.125 279.37 239.281 279.141C239.448 278.901 239.661 278.708 239.922 278.562C240.182 278.406 240.51 278.25 240.906 278.094C239.115 277.448 238.219 276.125 238.219 274.125C238.219 273.625 238.281 273.167 238.406 272.75C238.531 272.323 238.693 271.943 238.891 271.609C239.099 271.276 239.328 270.984 239.578 270.734C239.839 270.474 240.099 270.26 240.359 270.094C240.682 269.885 241.036 269.729 241.422 269.625C241.807 269.51 242.193 269.427 242.578 269.375C242.974 269.323 243.359 269.292 243.734 269.281C244.109 269.271 244.453 269.266 244.766 269.266H252.203V286ZM249.312 271.797H244.938C244.562 271.797 244.24 271.802 243.969 271.812C243.698 271.812 243.458 271.823 243.25 271.844C243.052 271.865 242.87 271.901 242.703 271.953C242.536 272.005 242.365 272.078 242.188 272.172C241.823 272.38 241.542 272.688 241.344 273.094C241.156 273.5 241.062 273.932 241.062 274.391C241.062 274.839 241.13 275.219 241.266 275.531C241.401 275.833 241.578 276.083 241.797 276.281C242.026 276.479 242.276 276.635 242.547 276.75C242.828 276.854 243.109 276.932 243.391 276.984C243.682 277.026 243.964 277.052 244.234 277.062C244.505 277.073 244.74 277.078 244.938 277.078H249.312V271.797Z" fill="#3378B7"/>
<path d="M265.375 269.266H268.25V283.5H276.062V269.266H278.953V283.5H281.016V290.094H278.328V286H265.375V269.266Z" fill="#3378B7"/>
<path d="M297.906 280.656C297.792 281.385 297.542 282.099 297.156 282.797C296.771 283.495 296.266 284.12 295.641 284.672C295.016 285.224 294.276 285.667 293.422 286C292.578 286.344 291.641 286.516 290.609 286.516C289.484 286.516 288.443 286.333 287.484 285.969C286.536 285.594 285.714 285.036 285.016 284.297C284.328 283.547 283.786 282.609 283.391 281.484C282.995 280.359 282.797 279.036 282.797 277.516C282.797 276.495 282.906 275.573 283.125 274.75C283.354 273.917 283.656 273.177 284.031 272.531C284.417 271.875 284.859 271.312 285.359 270.844C285.859 270.365 286.385 269.974 286.938 269.672C287.5 269.359 288.073 269.13 288.656 268.984C289.24 268.828 289.802 268.75 290.344 268.75C291.49 268.75 292.536 268.922 293.484 269.266C294.432 269.609 295.245 270.135 295.922 270.844C296.609 271.542 297.141 272.422 297.516 273.484C297.901 274.536 298.094 275.776 298.094 277.203V278.641H285.859C285.87 279.453 285.984 280.193 286.203 280.859C286.422 281.516 286.734 282.078 287.141 282.547C287.547 283.016 288.036 283.38 288.609 283.641C289.193 283.891 289.849 284.016 290.578 284.016C291.318 284.016 291.943 283.911 292.453 283.703C292.964 283.495 293.391 283.229 293.734 282.906C294.078 282.583 294.354 282.224 294.562 281.828C294.781 281.432 294.964 281.042 295.109 280.656H297.906ZM295.203 276.344C295.182 275.531 295.057 274.807 294.828 274.172C294.609 273.536 294.297 273.005 293.891 272.578C293.495 272.141 293.016 271.812 292.453 271.594C291.891 271.365 291.266 271.25 290.578 271.25C289.922 271.25 289.318 271.38 288.766 271.641C288.214 271.891 287.729 272.245 287.312 272.703C286.896 273.151 286.562 273.688 286.312 274.312C286.062 274.927 285.911 275.604 285.859 276.344H295.203Z" fill="#3378B7"/>
<path d="M301.312 269.266H304.188V271.562H304.25C304.438 271.177 304.672 270.812 304.953 270.469C305.245 270.125 305.589 269.828 305.984 269.578C306.391 269.318 306.854 269.115 307.375 268.969C307.906 268.823 308.51 268.75 309.188 268.75C310.083 268.75 310.943 268.922 311.766 269.266C312.589 269.609 313.318 270.125 313.953 270.812C314.589 271.5 315.094 272.365 315.469 273.406C315.844 274.438 316.031 275.641 316.031 277.016C316.031 278.734 315.854 280.198 315.5 281.406C315.156 282.604 314.661 283.583 314.016 284.344C313.38 285.104 312.609 285.656 311.703 286C310.797 286.344 309.786 286.516 308.672 286.516C308.12 286.516 307.604 286.443 307.125 286.297C306.646 286.151 306.214 285.964 305.828 285.734C305.453 285.495 305.13 285.234 304.859 284.953C304.589 284.661 304.385 284.38 304.25 284.109H304.188V292.594H301.312V269.266ZM304.125 277.719C304.125 278.625 304.214 279.464 304.391 280.234C304.568 280.995 304.839 281.656 305.203 282.219C305.578 282.781 306.042 283.224 306.594 283.547C307.156 283.859 307.818 284.016 308.578 284.016C309.37 284.016 310.052 283.859 310.625 283.547C311.208 283.224 311.688 282.781 312.062 282.219C312.438 281.656 312.714 280.995 312.891 280.234C313.068 279.464 313.156 278.625 313.156 277.719C313.156 276.771 313.068 275.901 312.891 275.109C312.714 274.318 312.438 273.635 312.062 273.062C311.688 272.49 311.208 272.047 310.625 271.734C310.052 271.411 309.37 271.25 308.578 271.25C307.818 271.25 307.156 271.411 306.594 271.734C306.042 272.047 305.578 272.49 305.203 273.062C304.839 273.635 304.568 274.318 304.391 275.109C304.214 275.901 304.125 276.771 304.125 277.719Z" fill="#3378B7"/>
<path d="M333.531 280.656C333.417 281.385 333.167 282.099 332.781 282.797C332.396 283.495 331.891 284.12 331.266 284.672C330.641 285.224 329.901 285.667 329.047 286C328.203 286.344 327.266 286.516 326.234 286.516C325.109 286.516 324.068 286.333 323.109 285.969C322.161 285.594 321.339 285.036 320.641 284.297C319.953 283.547 319.411 282.609 319.016 281.484C318.62 280.359 318.422 279.036 318.422 277.516C318.422 276.495 318.531 275.573 318.75 274.75C318.979 273.917 319.281 273.177 319.656 272.531C320.042 271.875 320.484 271.312 320.984 270.844C321.484 270.365 322.01 269.974 322.562 269.672C323.125 269.359 323.698 269.13 324.281 268.984C324.865 268.828 325.427 268.75 325.969 268.75C327.115 268.75 328.161 268.922 329.109 269.266C330.057 269.609 330.87 270.135 331.547 270.844C332.234 271.542 332.766 272.422 333.141 273.484C333.526 274.536 333.719 275.776 333.719 277.203V278.641H321.484C321.495 279.453 321.609 280.193 321.828 280.859C322.047 281.516 322.359 282.078 322.766 282.547C323.172 283.016 323.661 283.38 324.234 283.641C324.818 283.891 325.474 284.016 326.203 284.016C326.943 284.016 327.568 283.911 328.078 283.703C328.589 283.495 329.016 283.229 329.359 282.906C329.703 282.583 329.979 282.224 330.188 281.828C330.406 281.432 330.589 281.042 330.734 280.656H333.531ZM330.828 276.344C330.807 275.531 330.682 274.807 330.453 274.172C330.234 273.536 329.922 273.005 329.516 272.578C329.12 272.141 328.641 271.812 328.078 271.594C327.516 271.365 326.891 271.25 326.203 271.25C325.547 271.25 324.943 271.38 324.391 271.641C323.839 271.891 323.354 272.245 322.938 272.703C322.521 273.151 322.188 273.688 321.938 274.312C321.688 274.927 321.536 275.604 321.484 276.344H330.828Z" fill="#3378B7"/>
<path d="M337.094 269.266H341.281L345.703 282.984H345.766L350.25 269.266H354.188V286H351.5V272.531H351.438L347.016 286H344.266L339.844 272.531H339.781V286H337.094V269.266Z" fill="#3378B7"/>
<path d="M370.094 277.609C370.094 276.682 369.99 275.833 369.781 275.062C369.573 274.281 369.26 273.609 368.844 273.047C368.427 272.484 367.911 272.047 367.297 271.734C366.693 271.411 365.99 271.25 365.188 271.25C364.385 271.25 363.682 271.411 363.078 271.734C362.474 272.047 361.964 272.484 361.547 273.047C361.13 273.609 360.818 274.281 360.609 275.062C360.401 275.833 360.297 276.682 360.297 277.609C360.297 278.547 360.401 279.411 360.609 280.203C360.818 280.984 361.13 281.656 361.547 282.219C361.964 282.781 362.474 283.224 363.078 283.547C363.682 283.859 364.385 284.016 365.188 284.016C365.99 284.016 366.693 283.859 367.297 283.547C367.911 283.224 368.427 282.781 368.844 282.219C369.26 281.656 369.573 280.984 369.781 280.203C369.99 279.411 370.094 278.547 370.094 277.609ZM372.969 277.609C372.969 278.984 372.792 280.224 372.438 281.328C372.083 282.422 371.573 283.354 370.906 284.125C370.24 284.896 369.422 285.49 368.453 285.906C367.495 286.312 366.406 286.516 365.188 286.516C363.969 286.516 362.88 286.312 361.922 285.906C360.964 285.49 360.151 284.896 359.484 284.125C358.818 283.354 358.307 282.422 357.953 281.328C357.599 280.224 357.422 278.984 357.422 277.609C357.422 276.255 357.599 275.031 357.953 273.938C358.307 272.844 358.818 271.911 359.484 271.141C360.151 270.37 360.964 269.781 361.922 269.375C362.88 268.958 363.969 268.75 365.188 268.75C366.406 268.75 367.495 268.958 368.453 269.375C369.422 269.781 370.24 270.37 370.906 271.141C371.573 271.911 372.083 272.844 372.438 273.938C372.792 275.031 372.969 276.255 372.969 277.609Z" fill="#3378B7"/>
<path d="M376.219 269.266H379.094V276.016H386.906V269.266H389.797V286H386.906V278.516H379.094V286H376.219V269.266Z" fill="#3378B7"/>
<path d="M394.031 269.266H396.906V282.094H396.969L405.188 269.266H408.484V286H405.594V273.172H405.531L397.328 286H394.031V269.266Z" fill="#3378B7"/>
<path d="M412.719 269.266H415.594V282.094H415.656L423.875 269.266H427.172V286H424.281V273.172H424.219L416.016 286H412.719V269.266Z" fill="#3378B7"/>
<rect x="2" y="2" width="622" height="508" rx="48" stroke="#3378B7" stroke-width="4" stroke-dasharray="8 8"/>
</svg>
