<svg width="626" height="512" viewBox="0 0 626 512" fill="none" xmlns="http://www.w3.org/2000/svg">
<rect x="2" y="2" width="622" height="508" rx="48" stroke="#3378B7" stroke-width="4" stroke-dasharray="8 8"/>
<path d="M182.781 232.266H193.172V234.766H185.656V249H182.781V232.266ZM195.531 232.266H198.406V234.562H198.469C198.656 234.177 198.891 233.812 199.172 233.469C199.464 233.125 199.807 232.828 200.203 232.578C200.609 232.318 201.073 232.115 201.594 231.969C202.125 231.823 202.729 231.75 203.406 231.75C204.302 231.75 205.161 231.922 205.984 232.266C206.807 232.609 207.536 233.125 208.172 233.812C208.807 234.5 209.312 235.365 209.688 236.406C210.062 237.438 210.25 238.641 210.25 240.016C210.25 241.734 210.073 243.198 209.719 244.406C209.375 245.604 208.88 246.583 208.234 247.344C207.599 248.104 206.828 248.656 205.922 249C205.016 249.344 204.005 249.516 202.891 249.516C202.339 249.516 201.823 249.443 201.344 249.297C200.865 249.151 200.432 248.964 200.047 248.734C199.672 248.495 199.349 248.234 199.078 247.953C198.807 247.661 198.604 247.38 198.469 247.109H198.406V255.594H195.531V232.266ZM198.344 240.719C198.344 241.625 198.432 242.464 198.609 243.234C198.786 243.995 199.057 244.656 199.422 245.219C199.797 245.781 200.26 246.224 200.812 246.547C201.375 246.859 202.036 247.016 202.797 247.016C203.589 247.016 204.271 246.859 204.844 246.547C205.427 246.224 205.906 245.781 206.281 245.219C206.656 244.656 206.932 243.995 207.109 243.234C207.286 242.464 207.375 241.625 207.375 240.719C207.375 239.771 207.286 238.901 207.109 238.109C206.932 237.318 206.656 236.635 206.281 236.062C205.906 235.49 205.427 235.047 204.844 234.734C204.271 234.411 203.589 234.25 202.797 234.25C202.036 234.25 201.375 234.411 200.812 234.734C200.26 235.047 199.797 235.49 199.422 236.062C199.057 236.635 198.786 237.318 198.609 238.109C198.432 238.901 198.344 239.771 198.344 240.719ZM213.469 237.281C213.5 236.26 213.693 235.401 214.047 234.703C214.401 233.995 214.88 233.422 215.484 232.984C216.089 232.547 216.802 232.234 217.625 232.047C218.458 231.849 219.365 231.75 220.344 231.75C221.156 231.75 221.943 231.833 222.703 232C223.474 232.167 224.156 232.438 224.75 232.812C225.344 233.177 225.818 233.656 226.172 234.25C226.536 234.833 226.719 235.547 226.719 236.391V246.125C226.719 246.396 226.792 246.63 226.938 246.828C227.083 247.016 227.318 247.109 227.641 247.109C227.786 247.109 227.938 247.099 228.094 247.078C228.25 247.047 228.411 247.016 228.578 246.984V248.969C228.339 249.031 228.099 249.089 227.859 249.141C227.63 249.193 227.354 249.219 227.031 249.219C226.531 249.219 226.099 249.177 225.734 249.094C225.38 249.01 225.078 248.875 224.828 248.688C224.589 248.49 224.401 248.24 224.266 247.938C224.13 247.625 224.042 247.245 224 246.797C223.646 247.182 223.271 247.542 222.875 247.875C222.479 248.198 222.036 248.484 221.547 248.734C221.057 248.974 220.51 249.161 219.906 249.297C219.302 249.443 218.62 249.516 217.859 249.516C217.214 249.516 216.583 249.411 215.969 249.203C215.365 248.995 214.818 248.688 214.328 248.281C213.849 247.875 213.464 247.375 213.172 246.781C212.88 246.177 212.734 245.479 212.734 244.688C212.734 243.823 212.88 243.078 213.172 242.453C213.464 241.818 213.844 241.292 214.312 240.875C214.781 240.448 215.318 240.12 215.922 239.891C216.526 239.661 217.141 239.51 217.766 239.438L222.469 238.859C222.917 238.807 223.266 238.635 223.516 238.344C223.776 238.042 223.906 237.562 223.906 236.906C223.906 235.896 223.573 235.172 222.906 234.734C222.25 234.286 221.302 234.062 220.062 234.062C218.792 234.062 217.844 234.333 217.219 234.875C216.594 235.406 216.24 236.208 216.156 237.281H213.469ZM223.844 240.484C223.615 240.651 223.328 240.792 222.984 240.906C222.651 241.01 222.281 241.099 221.875 241.172C221.469 241.245 221.036 241.312 220.578 241.375C220.12 241.427 219.661 241.484 219.203 241.547C218.682 241.62 218.203 241.724 217.766 241.859C217.328 241.995 216.948 242.172 216.625 242.391C216.302 242.609 216.052 242.875 215.875 243.188C215.698 243.49 215.609 243.849 215.609 244.266C215.609 244.745 215.682 245.167 215.828 245.531C215.984 245.896 216.193 246.203 216.453 246.453C216.724 246.703 217.047 246.891 217.422 247.016C217.797 247.141 218.208 247.203 218.656 247.203C218.938 247.203 219.26 247.172 219.625 247.109C219.99 247.036 220.365 246.932 220.75 246.797C221.135 246.661 221.51 246.49 221.875 246.281C222.25 246.062 222.583 245.802 222.875 245.5C223.167 245.198 223.401 244.854 223.578 244.469C223.755 244.083 223.844 243.651 223.844 243.172V240.484ZM241.078 239.172C241.078 238.38 240.979 237.682 240.781 237.078C240.583 236.464 240.318 235.948 239.984 235.531C239.651 235.115 239.266 234.797 238.828 234.578C238.391 234.359 237.932 234.25 237.453 234.25C236.682 234.25 236.026 234.417 235.484 234.75C234.943 235.083 234.5 235.542 234.156 236.125C233.812 236.698 233.562 237.37 233.406 238.141C233.25 238.911 233.172 239.734 233.172 240.609C233.172 241.078 233.198 241.568 233.25 242.078C233.312 242.589 233.406 243.089 233.531 243.578C233.656 244.068 233.823 244.531 234.031 244.969C234.24 245.406 234.5 245.792 234.812 246.125C235.125 246.458 235.49 246.724 235.906 246.922C236.333 247.109 236.828 247.203 237.391 247.203C238.589 247.203 239.5 246.781 240.125 245.938C240.76 245.083 241.078 243.875 241.078 242.312V239.172ZM241.078 246.984H241.016C240.714 247.516 240.396 247.948 240.062 248.281C239.74 248.604 239.396 248.854 239.031 249.031C238.677 249.219 238.302 249.344 237.906 249.406C237.521 249.479 237.125 249.516 236.719 249.516C235.906 249.516 235.115 249.323 234.344 248.938C233.573 248.552 232.885 247.984 232.281 247.234C231.688 246.474 231.208 245.531 230.844 244.406C230.479 243.281 230.297 241.984 230.297 240.516C230.297 239.797 230.349 239.083 230.453 238.375C230.557 237.656 230.719 236.974 230.938 236.328C231.156 235.682 231.432 235.078 231.766 234.516C232.109 233.953 232.516 233.469 232.984 233.062C233.464 232.656 234.01 232.339 234.625 232.109C235.24 231.87 235.927 231.75 236.688 231.75C237.26 231.75 237.776 231.833 238.234 232C238.693 232.156 239.094 232.359 239.438 232.609C239.792 232.859 240.094 233.13 240.344 233.422C240.604 233.714 240.828 233.99 241.016 234.25H241.078V226.031H243.953V234.25H244.016C244.203 233.99 244.422 233.714 244.672 233.422C244.932 233.13 245.234 232.859 245.578 232.609C245.932 232.359 246.333 232.156 246.781 232C247.24 231.833 247.76 231.75 248.344 231.75C249.104 231.75 249.792 231.87 250.406 232.109C251.021 232.339 251.562 232.656 252.031 233.062C252.51 233.469 252.917 233.953 253.25 234.516C253.594 235.078 253.875 235.682 254.094 236.328C254.312 236.974 254.474 237.656 254.578 238.375C254.682 239.083 254.734 239.797 254.734 240.516C254.734 241.984 254.552 243.281 254.188 244.406C253.823 245.531 253.339 246.474 252.734 247.234C252.141 247.984 251.458 248.552 250.688 248.938C249.917 249.323 249.125 249.516 248.312 249.516C247.906 249.516 247.505 249.479 247.109 249.406C246.724 249.344 246.349 249.219 245.984 249.031C245.63 248.854 245.286 248.604 244.953 248.281C244.62 247.948 244.307 247.516 244.016 246.984H243.953V255.594H241.078V246.984ZM247.578 247.203C248.151 247.203 248.656 247.109 249.094 246.922C249.531 246.724 249.906 246.458 250.219 246.125C250.542 245.792 250.807 245.406 251.016 244.969C251.224 244.531 251.391 244.068 251.516 243.578C251.641 243.089 251.729 242.589 251.781 242.078C251.833 241.568 251.859 241.078 251.859 240.609C251.859 239.734 251.776 238.911 251.609 238.141C251.453 237.37 251.203 236.698 250.859 236.125C250.516 235.542 250.073 235.083 249.531 234.75C248.99 234.417 248.339 234.25 247.578 234.25C247.099 234.25 246.641 234.359 246.203 234.578C245.766 234.797 245.38 235.115 245.047 235.531C244.714 235.948 244.448 236.464 244.25 237.078C244.052 237.682 243.953 238.38 243.953 239.172V242.312C243.953 243.875 244.266 245.083 244.891 245.938C245.516 246.781 246.411 247.203 247.578 247.203ZM257.938 232.266H260.812V245.094H260.875L269.094 232.266H272.391V249H269.5V236.172H269.438L261.234 249H257.938V232.266ZM276.625 232.266H279.5V240.359L287.953 232.266H291.719L283.859 239.656L291.844 249H288.141L281.609 241.406L279.5 243.172V249H276.625V232.266ZM294.125 237.281C294.156 236.26 294.349 235.401 294.703 234.703C295.057 233.995 295.536 233.422 296.141 232.984C296.745 232.547 297.458 232.234 298.281 232.047C299.115 231.849 300.021 231.75 301 231.75C301.812 231.75 302.599 231.833 303.359 232C304.13 232.167 304.812 232.438 305.406 232.812C306 233.177 306.474 233.656 306.828 234.25C307.193 234.833 307.375 235.547 307.375 236.391V246.125C307.375 246.396 307.448 246.63 307.594 246.828C307.74 247.016 307.974 247.109 308.297 247.109C308.443 247.109 308.594 247.099 308.75 247.078C308.906 247.047 309.068 247.016 309.234 246.984V248.969C308.995 249.031 308.755 249.089 308.516 249.141C308.286 249.193 308.01 249.219 307.688 249.219C307.188 249.219 306.755 249.177 306.391 249.094C306.036 249.01 305.734 248.875 305.484 248.688C305.245 248.49 305.057 248.24 304.922 247.938C304.786 247.625 304.698 247.245 304.656 246.797C304.302 247.182 303.927 247.542 303.531 247.875C303.135 248.198 302.693 248.484 302.203 248.734C301.714 248.974 301.167 249.161 300.562 249.297C299.958 249.443 299.276 249.516 298.516 249.516C297.87 249.516 297.24 249.411 296.625 249.203C296.021 248.995 295.474 248.688 294.984 248.281C294.505 247.875 294.12 247.375 293.828 246.781C293.536 246.177 293.391 245.479 293.391 244.688C293.391 243.823 293.536 243.078 293.828 242.453C294.12 241.818 294.5 241.292 294.969 240.875C295.438 240.448 295.974 240.12 296.578 239.891C297.182 239.661 297.797 239.51 298.422 239.438L303.125 238.859C303.573 238.807 303.922 238.635 304.172 238.344C304.432 238.042 304.562 237.562 304.562 236.906C304.562 235.896 304.229 235.172 303.562 234.734C302.906 234.286 301.958 234.062 300.719 234.062C299.448 234.062 298.5 234.333 297.875 234.875C297.25 235.406 296.896 236.208 296.812 237.281H294.125ZM304.5 240.484C304.271 240.651 303.984 240.792 303.641 240.906C303.307 241.01 302.938 241.099 302.531 241.172C302.125 241.245 301.693 241.312 301.234 241.375C300.776 241.427 300.318 241.484 299.859 241.547C299.339 241.62 298.859 241.724 298.422 241.859C297.984 241.995 297.604 242.172 297.281 242.391C296.958 242.609 296.708 242.875 296.531 243.188C296.354 243.49 296.266 243.849 296.266 244.266C296.266 244.745 296.339 245.167 296.484 245.531C296.641 245.896 296.849 246.203 297.109 246.453C297.38 246.703 297.703 246.891 298.078 247.016C298.453 247.141 298.865 247.203 299.312 247.203C299.594 247.203 299.917 247.172 300.281 247.109C300.646 247.036 301.021 246.932 301.406 246.797C301.792 246.661 302.167 246.49 302.531 246.281C302.906 246.062 303.24 245.802 303.531 245.5C303.823 245.198 304.057 244.854 304.234 244.469C304.411 244.083 304.5 243.651 304.5 243.172V240.484ZM330.953 242.25C330.328 242.417 329.641 242.557 328.891 242.672C328.151 242.786 327.458 242.844 326.812 242.844C324.573 242.844 322.911 242.417 321.828 241.562C320.745 240.698 320.203 239.339 320.203 237.484V232.266H323.078V236.906C323.078 237.531 323.151 238.073 323.297 238.531C323.453 238.99 323.703 239.37 324.047 239.672C324.391 239.964 324.844 240.182 325.406 240.328C325.969 240.474 326.661 240.547 327.484 240.547C327.703 240.547 327.964 240.526 328.266 240.484C328.578 240.443 328.896 240.391 329.219 240.328C329.542 240.266 329.854 240.198 330.156 240.125C330.469 240.042 330.734 239.958 330.953 239.875V232.266H333.844V249H330.953V242.25ZM338.062 237.281C338.094 236.26 338.286 235.401 338.641 234.703C338.995 233.995 339.474 233.422 340.078 232.984C340.682 232.547 341.396 232.234 342.219 232.047C343.052 231.849 343.958 231.75 344.938 231.75C345.75 231.75 346.536 231.833 347.297 232C348.068 232.167 348.75 232.438 349.344 232.812C349.938 233.177 350.411 233.656 350.766 234.25C351.13 234.833 351.312 235.547 351.312 236.391V246.125C351.312 246.396 351.385 246.63 351.531 246.828C351.677 247.016 351.911 247.109 352.234 247.109C352.38 247.109 352.531 247.099 352.688 247.078C352.844 247.047 353.005 247.016 353.172 246.984V248.969C352.932 249.031 352.693 249.089 352.453 249.141C352.224 249.193 351.948 249.219 351.625 249.219C351.125 249.219 350.693 249.177 350.328 249.094C349.974 249.01 349.672 248.875 349.422 248.688C349.182 248.49 348.995 248.24 348.859 247.938C348.724 247.625 348.635 247.245 348.594 246.797C348.24 247.182 347.865 247.542 347.469 247.875C347.073 248.198 346.63 248.484 346.141 248.734C345.651 248.974 345.104 249.161 344.5 249.297C343.896 249.443 343.214 249.516 342.453 249.516C341.807 249.516 341.177 249.411 340.562 249.203C339.958 248.995 339.411 248.688 338.922 248.281C338.443 247.875 338.057 247.375 337.766 246.781C337.474 246.177 337.328 245.479 337.328 244.688C337.328 243.823 337.474 243.078 337.766 242.453C338.057 241.818 338.438 241.292 338.906 240.875C339.375 240.448 339.911 240.12 340.516 239.891C341.12 239.661 341.734 239.51 342.359 239.438L347.062 238.859C347.51 238.807 347.859 238.635 348.109 238.344C348.37 238.042 348.5 237.562 348.5 236.906C348.5 235.896 348.167 235.172 347.5 234.734C346.844 234.286 345.896 234.062 344.656 234.062C343.385 234.062 342.438 234.333 341.812 234.875C341.188 235.406 340.833 236.208 340.75 237.281H338.062ZM348.438 240.484C348.208 240.651 347.922 240.792 347.578 240.906C347.245 241.01 346.875 241.099 346.469 241.172C346.062 241.245 345.63 241.312 345.172 241.375C344.714 241.427 344.255 241.484 343.797 241.547C343.276 241.62 342.797 241.724 342.359 241.859C341.922 241.995 341.542 242.172 341.219 242.391C340.896 242.609 340.646 242.875 340.469 243.188C340.292 243.49 340.203 243.849 340.203 244.266C340.203 244.745 340.276 245.167 340.422 245.531C340.578 245.896 340.786 246.203 341.047 246.453C341.318 246.703 341.641 246.891 342.016 247.016C342.391 247.141 342.802 247.203 343.25 247.203C343.531 247.203 343.854 247.172 344.219 247.109C344.583 247.036 344.958 246.932 345.344 246.797C345.729 246.661 346.104 246.49 346.469 246.281C346.844 246.062 347.177 245.802 347.469 245.5C347.76 245.198 347.995 244.854 348.172 244.469C348.349 244.083 348.438 243.651 348.438 243.172V240.484ZM360.422 225.766C360.557 226.432 360.839 226.964 361.266 227.359C361.693 227.745 362.323 227.938 363.156 227.938C364 227.938 364.635 227.75 365.062 227.375C365.49 226.99 365.766 226.453 365.891 225.766H368.562C368.552 226.391 368.417 226.958 368.156 227.469C367.896 227.969 367.526 228.396 367.047 228.75C366.578 229.104 366.01 229.38 365.344 229.578C364.688 229.766 363.958 229.859 363.156 229.859C362.354 229.859 361.625 229.766 360.969 229.578C360.312 229.391 359.75 229.12 359.281 228.766C358.812 228.411 358.443 227.984 358.172 227.484C357.911 226.974 357.776 226.401 357.766 225.766H360.422ZM355.906 232.266H358.781V245.094H358.844L367.062 232.266H370.359V249H367.469V236.172H367.406L359.203 249H355.906V232.266ZM374.594 232.266H377.469V239.016H385.281V232.266H388.172V249H385.281V241.516H377.469V249H374.594V232.266ZM392.406 232.266H395.281V245.094H395.344L403.562 232.266H406.859V249H403.969V236.172H403.906L395.703 249H392.406V232.266ZM411.094 232.266H413.969V240.359L422.422 232.266H426.188L418.328 239.656L426.312 249H422.609L416.078 241.406L413.969 243.172V249H411.094V232.266ZM428.594 237.281C428.625 236.26 428.818 235.401 429.172 234.703C429.526 233.995 430.005 233.422 430.609 232.984C431.214 232.547 431.927 232.234 432.75 232.047C433.583 231.849 434.49 231.75 435.469 231.75C436.281 231.75 437.068 231.833 437.828 232C438.599 232.167 439.281 232.438 439.875 232.812C440.469 233.177 440.943 233.656 441.297 234.25C441.661 234.833 441.844 235.547 441.844 236.391V246.125C441.844 246.396 441.917 246.63 442.062 246.828C442.208 247.016 442.443 247.109 442.766 247.109C442.911 247.109 443.062 247.099 443.219 247.078C443.375 247.047 443.536 247.016 443.703 246.984V248.969C443.464 249.031 443.224 249.089 442.984 249.141C442.755 249.193 442.479 249.219 442.156 249.219C441.656 249.219 441.224 249.177 440.859 249.094C440.505 249.01 440.203 248.875 439.953 248.688C439.714 248.49 439.526 248.24 439.391 247.938C439.255 247.625 439.167 247.245 439.125 246.797C438.771 247.182 438.396 247.542 438 247.875C437.604 248.198 437.161 248.484 436.672 248.734C436.182 248.974 435.635 249.161 435.031 249.297C434.427 249.443 433.745 249.516 432.984 249.516C432.339 249.516 431.708 249.411 431.094 249.203C430.49 248.995 429.943 248.688 429.453 248.281C428.974 247.875 428.589 247.375 428.297 246.781C428.005 246.177 427.859 245.479 427.859 244.688C427.859 243.823 428.005 243.078 428.297 242.453C428.589 241.818 428.969 241.292 429.438 240.875C429.906 240.448 430.443 240.12 431.047 239.891C431.651 239.661 432.266 239.51 432.891 239.438L437.594 238.859C438.042 238.807 438.391 238.635 438.641 238.344C438.901 238.042 439.031 237.562 439.031 236.906C439.031 235.896 438.698 235.172 438.031 234.734C437.375 234.286 436.427 234.062 435.188 234.062C433.917 234.062 432.969 234.333 432.344 234.875C431.719 235.406 431.365 236.208 431.281 237.281H428.594ZM438.969 240.484C438.74 240.651 438.453 240.792 438.109 240.906C437.776 241.01 437.406 241.099 437 241.172C436.594 241.245 436.161 241.312 435.703 241.375C435.245 241.427 434.786 241.484 434.328 241.547C433.807 241.62 433.328 241.724 432.891 241.859C432.453 241.995 432.073 242.172 431.75 242.391C431.427 242.609 431.177 242.875 431 243.188C430.823 243.49 430.734 243.849 430.734 244.266C430.734 244.745 430.807 245.167 430.953 245.531C431.109 245.896 431.318 246.203 431.578 246.453C431.849 246.703 432.172 246.891 432.547 247.016C432.922 247.141 433.333 247.203 433.781 247.203C434.062 247.203 434.385 247.172 434.75 247.109C435.115 247.036 435.49 246.932 435.875 246.797C436.26 246.661 436.635 246.49 437 246.281C437.375 246.062 437.708 245.802 438 245.5C438.292 245.198 438.526 244.854 438.703 244.469C438.88 244.083 438.969 243.651 438.969 243.172V240.484ZM172.297 269.266H175.172V282.094H175.234L183.453 269.266H186.75V286H183.859V273.172H183.797L175.594 286H172.297V269.266ZM195.312 276.328H196.766C197.151 276.328 197.552 276.281 197.969 276.188C198.385 276.094 198.766 275.948 199.109 275.75C199.453 275.542 199.734 275.276 199.953 274.953C200.182 274.63 200.297 274.24 200.297 273.781C200.297 273.448 200.224 273.13 200.078 272.828C199.943 272.516 199.734 272.245 199.453 272.016C199.182 271.776 198.839 271.589 198.422 271.453C198.005 271.318 197.521 271.25 196.969 271.25C196.677 271.25 196.333 271.292 195.938 271.375C195.542 271.458 195.151 271.615 194.766 271.844C194.391 272.062 194.052 272.38 193.75 272.797C193.458 273.203 193.271 273.734 193.188 274.391H190.5C190.573 273.641 190.724 272.984 190.953 272.422C191.182 271.849 191.469 271.354 191.812 270.938C192.156 270.521 192.542 270.172 192.969 269.891C193.406 269.609 193.854 269.385 194.312 269.219C194.781 269.052 195.25 268.932 195.719 268.859C196.188 268.786 196.635 268.75 197.062 268.75C197.812 268.75 198.552 268.849 199.281 269.047C200.01 269.234 200.661 269.526 201.234 269.922C201.818 270.307 202.286 270.797 202.641 271.391C202.995 271.984 203.172 272.677 203.172 273.469C203.172 273.979 203.099 274.432 202.953 274.828C202.807 275.214 202.615 275.552 202.375 275.844C202.146 276.135 201.885 276.385 201.594 276.594C201.302 276.792 201.016 276.958 200.734 277.094V277.172C201.026 277.224 201.349 277.333 201.703 277.5C202.057 277.656 202.385 277.885 202.688 278.188C202.99 278.479 203.24 278.859 203.438 279.328C203.646 279.786 203.75 280.349 203.75 281.016C203.75 281.953 203.547 282.766 203.141 283.453C202.745 284.141 202.224 284.714 201.578 285.172C200.932 285.62 200.203 285.953 199.391 286.172C198.578 286.401 197.76 286.516 196.938 286.516C195.875 286.516 194.911 286.38 194.047 286.109C193.193 285.839 192.453 285.453 191.828 284.953C191.203 284.453 190.703 283.854 190.328 283.156C189.964 282.458 189.745 281.688 189.672 280.844H192.562C192.635 281.458 192.812 281.969 193.094 282.375C193.375 282.781 193.714 283.104 194.109 283.344C194.505 283.583 194.943 283.755 195.422 283.859C195.911 283.964 196.406 284.016 196.906 284.016C198.229 284.016 199.219 283.75 199.875 283.219C200.542 282.688 200.875 281.974 200.875 281.078C200.875 280.693 200.812 280.349 200.688 280.047C200.573 279.745 200.375 279.49 200.094 279.281C199.812 279.062 199.438 278.901 198.969 278.797C198.51 278.682 197.938 278.625 197.25 278.625C197.115 278.625 196.958 278.63 196.781 278.641C196.615 278.641 196.443 278.646 196.266 278.656C196.099 278.667 195.932 278.682 195.766 278.703C195.599 278.714 195.448 278.724 195.312 278.734V276.328ZM215.891 269.266H218.766V282.094H218.828L227.047 269.266H230.344V286H227.453V273.172H227.391L219.188 286H215.891V269.266ZM247.734 280.109C247.693 280.516 247.609 280.958 247.484 281.438C247.37 281.917 247.198 282.396 246.969 282.875C246.74 283.344 246.443 283.797 246.078 284.234C245.724 284.672 245.286 285.062 244.766 285.406C244.255 285.74 243.651 286.005 242.953 286.203C242.255 286.411 241.458 286.516 240.562 286.516C240.073 286.516 239.557 286.453 239.016 286.328C238.474 286.214 237.943 286.016 237.422 285.734C236.911 285.453 236.422 285.094 235.953 284.656C235.495 284.208 235.089 283.656 234.734 283C234.391 282.344 234.115 281.583 233.906 280.719C233.698 279.844 233.594 278.844 233.594 277.719C233.594 276.333 233.792 275.089 234.188 273.984C234.583 272.87 235.109 271.927 235.766 271.156C236.432 270.385 237.203 269.792 238.078 269.375C238.964 268.958 239.891 268.75 240.859 268.75C241.734 268.75 242.505 268.844 243.172 269.031C243.849 269.219 244.438 269.469 244.938 269.781C245.438 270.094 245.859 270.458 246.203 270.875C246.547 271.281 246.823 271.714 247.031 272.172C247.25 272.62 247.411 273.078 247.516 273.547C247.63 274.016 247.703 274.464 247.734 274.891H245.047C244.901 273.755 244.505 272.865 243.859 272.219C243.224 271.573 242.328 271.25 241.172 271.25C240.38 271.25 239.688 271.411 239.094 271.734C238.51 272.057 238.021 272.51 237.625 273.094C237.24 273.667 236.948 274.365 236.75 275.188C236.562 276 236.469 276.896 236.469 277.875C236.469 278.979 236.573 279.932 236.781 280.734C236.99 281.526 237.286 282.182 237.672 282.703C238.057 283.214 238.526 283.594 239.078 283.844C239.641 284.083 240.276 284.203 240.984 284.203C241.484 284.203 241.958 284.115 242.406 283.938C242.854 283.75 243.255 283.484 243.609 283.141C243.964 282.786 244.266 282.354 244.516 281.844C244.766 281.333 244.943 280.755 245.047 280.109H247.734ZM250.578 269.266H253.453V282.094H253.516L261.734 269.266H265.031V286H262.141V273.172H262.078L253.875 286H250.578V269.266ZM269.266 269.266H272.141V276.016H279.953V269.266H282.844V286H279.953V278.516H272.141V286H269.266V269.266ZM300.234 280.109C300.193 280.516 300.109 280.958 299.984 281.438C299.87 281.917 299.698 282.396 299.469 282.875C299.24 283.344 298.943 283.797 298.578 284.234C298.224 284.672 297.786 285.062 297.266 285.406C296.755 285.74 296.151 286.005 295.453 286.203C294.755 286.411 293.958 286.516 293.062 286.516C292.573 286.516 292.057 286.453 291.516 286.328C290.974 286.214 290.443 286.016 289.922 285.734C289.411 285.453 288.922 285.094 288.453 284.656C287.995 284.208 287.589 283.656 287.234 283C286.891 282.344 286.615 281.583 286.406 280.719C286.198 279.844 286.094 278.844 286.094 277.719C286.094 276.333 286.292 275.089 286.688 273.984C287.083 272.87 287.609 271.927 288.266 271.156C288.932 270.385 289.703 269.792 290.578 269.375C291.464 268.958 292.391 268.75 293.359 268.75C294.234 268.75 295.005 268.844 295.672 269.031C296.349 269.219 296.938 269.469 297.438 269.781C297.938 270.094 298.359 270.458 298.703 270.875C299.047 271.281 299.323 271.714 299.531 272.172C299.75 272.62 299.911 273.078 300.016 273.547C300.13 274.016 300.203 274.464 300.234 274.891H297.547C297.401 273.755 297.005 272.865 296.359 272.219C295.724 271.573 294.828 271.25 293.672 271.25C292.88 271.25 292.188 271.411 291.594 271.734C291.01 272.057 290.521 272.51 290.125 273.094C289.74 273.667 289.448 274.365 289.25 275.188C289.062 276 288.969 276.896 288.969 277.875C288.969 278.979 289.073 279.932 289.281 280.734C289.49 281.526 289.786 282.182 290.172 282.703C290.557 283.214 291.026 283.594 291.578 283.844C292.141 284.083 292.776 284.203 293.484 284.203C293.984 284.203 294.458 284.115 294.906 283.938C295.354 283.75 295.755 283.484 296.109 283.141C296.464 282.786 296.766 282.354 297.016 281.844C297.266 281.333 297.443 280.755 297.547 280.109H300.234ZM303.078 269.266H305.953V277.359L314.406 269.266H318.172L310.312 276.656L318.297 286H314.594L308.062 278.406L305.953 280.172V286H303.078V269.266ZM332.297 277.609C332.297 276.682 332.193 275.833 331.984 275.062C331.776 274.281 331.464 273.609 331.047 273.047C330.63 272.484 330.115 272.047 329.5 271.734C328.896 271.411 328.193 271.25 327.391 271.25C326.589 271.25 325.885 271.411 325.281 271.734C324.677 272.047 324.167 272.484 323.75 273.047C323.333 273.609 323.021 274.281 322.812 275.062C322.604 275.833 322.5 276.682 322.5 277.609C322.5 278.547 322.604 279.411 322.812 280.203C323.021 280.984 323.333 281.656 323.75 282.219C324.167 282.781 324.677 283.224 325.281 283.547C325.885 283.859 326.589 284.016 327.391 284.016C328.193 284.016 328.896 283.859 329.5 283.547C330.115 283.224 330.63 282.781 331.047 282.219C331.464 281.656 331.776 280.984 331.984 280.203C332.193 279.411 332.297 278.547 332.297 277.609ZM335.172 277.609C335.172 278.984 334.995 280.224 334.641 281.328C334.286 282.422 333.776 283.354 333.109 284.125C332.443 284.896 331.625 285.49 330.656 285.906C329.698 286.312 328.609 286.516 327.391 286.516C326.172 286.516 325.083 286.312 324.125 285.906C323.167 285.49 322.354 284.896 321.688 284.125C321.021 283.354 320.51 282.422 320.156 281.328C319.802 280.224 319.625 278.984 319.625 277.609C319.625 276.255 319.802 275.031 320.156 273.938C320.51 272.844 321.021 271.911 321.688 271.141C322.354 270.37 323.167 269.781 324.125 269.375C325.083 268.958 326.172 268.75 327.391 268.75C328.609 268.75 329.698 268.958 330.656 269.375C331.625 269.781 332.443 270.37 333.109 271.141C333.776 271.911 334.286 272.844 334.641 273.938C334.995 275.031 335.172 276.255 335.172 277.609ZM342.938 262.766C343.073 263.432 343.354 263.964 343.781 264.359C344.208 264.745 344.839 264.938 345.672 264.938C346.516 264.938 347.151 264.75 347.578 264.375C348.005 263.99 348.281 263.453 348.406 262.766H351.078C351.068 263.391 350.932 263.958 350.672 264.469C350.411 264.969 350.042 265.396 349.562 265.75C349.094 266.104 348.526 266.38 347.859 266.578C347.203 266.766 346.474 266.859 345.672 266.859C344.87 266.859 344.141 266.766 343.484 266.578C342.828 266.391 342.266 266.12 341.797 265.766C341.328 265.411 340.958 264.984 340.688 264.484C340.427 263.974 340.292 263.401 340.281 262.766H342.938ZM338.422 269.266H341.297V282.094H341.359L349.578 269.266H352.875V286H349.984V273.172H349.922L341.719 286H338.422V269.266ZM366.016 269.266H376.406V271.766H368.891V286H366.016V269.266ZM390.188 271.766H383.781L383.656 275.781C383.594 277.812 383.438 279.51 383.188 280.875C382.938 282.229 382.594 283.318 382.156 284.141C381.729 284.964 381.208 285.547 380.594 285.891C379.979 286.234 379.276 286.406 378.484 286.406C378.193 286.406 377.938 286.359 377.719 286.266C377.51 286.182 377.349 286.094 377.234 286V283.469C377.641 283.625 378 283.703 378.312 283.703C378.531 283.703 378.74 283.667 378.938 283.594C379.146 283.521 379.339 283.38 379.516 283.172C379.703 282.964 379.875 282.672 380.031 282.297C380.188 281.911 380.323 281.411 380.438 280.797C380.562 280.182 380.661 279.438 380.734 278.562C380.818 277.688 380.875 276.646 380.906 275.438L381.047 269.266H393.062V286H390.188V271.766ZM397.297 269.266H400.172V282.094H400.234L408.453 269.266H411.75V286H408.859V273.172H408.797L400.594 286H397.297V269.266ZM415.984 269.266H418.859V276.016H426.672V269.266H429.562V286H426.672V278.516H418.859V286H415.984V269.266ZM449.797 269.266H452.672V286H449.797V269.266ZM433.797 269.266H436.672V275.562H441.703C442.609 275.562 443.422 275.688 444.141 275.938C444.87 276.177 445.484 276.526 445.984 276.984C446.484 277.432 446.865 277.979 447.125 278.625C447.396 279.26 447.531 279.979 447.531 280.781C447.531 281.594 447.396 282.323 447.125 282.969C446.865 283.604 446.484 284.151 445.984 284.609C445.484 285.057 444.87 285.401 444.141 285.641C443.422 285.88 442.609 286 441.703 286H433.797V269.266ZM436.672 283.703H441.125C441.625 283.703 442.089 283.651 442.516 283.547C442.953 283.443 443.328 283.276 443.641 283.047C443.953 282.807 444.198 282.505 444.375 282.141C444.552 281.766 444.641 281.312 444.641 280.781C444.641 280.26 444.547 279.818 444.359 279.453C444.182 279.089 443.927 278.792 443.594 278.562C443.271 278.323 442.875 278.151 442.406 278.047C441.948 277.932 441.438 277.875 440.875 277.875H436.672V283.703Z" fill="#3378B7"/>
</svg>
